HIERARCHY
ROOT Hips
{
  OFFSET 3.13124 94.3669 -3.18751
  CHANNELS  6 Xposition Yposition Zposition Zrotation Xrotation Yrotation
  JOINT LeftUpLeg
  {
    OFFSET 8.64259 1.95398 -2.38835
    CHANNELS 3 Zrotation Xrotation Yrotation
    JOINT LeftLeg
    {
      OFFSET 43.7702 0 0
      CHANNELS 3 Zrotation Xrotation Yrotation
      JOINT LeftFoot
      {
        OFFSET 40.6238 0 0
        CHANNELS 3 Zrotation Xrotation Yrotation
        JOINT LeftToeBase
        {
          OFFSET 12.7242 0 0
          CHANNELS 3 Zrotation Xrotation Yrotation
          End Site
          {
            OFFSET 0 0 0
          }
        }
      }
    }
  }
  JOINT RightUpLeg
  {
    OFFSET -8.2249 1.95398 -2.59336
    CHANNELS 3 Zrotation Xrotation Yrotation
    JOINT RightLeg
    {
      OFFSET 43.5653 0 0
      CHANNELS 3 Zrotation Xrotation Yrotation
      JOINT RightFoot
      {
        OFFSET 40.6238 0 0
        CHANNELS 3 Zrotation Xrotation Yrotation
        JOINT RightToeBase
        {
          OFFSET 12.7242 0 0
          CHANNELS 3 Zrotation Xrotation Yrotation
          End Site
          {
            OFFSET 0 0 0
          }
        }
      }
    }
  }
  JOINT Spine
  {
    OFFSET 0.165834 0.87714 6.61349
    CHANNELS 3 Zrotation Xrotation Yrotation
    JOINT Spine1
    {
      OFFSET 7.38962 1.71661e-005 0
      CHANNELS 3 Zrotation Xrotation Yrotation
      JOINT Spine2
      {
        OFFSET 11.9445 1.14441e-005 0
        CHANNELS 3 Zrotation Xrotation Yrotation
        JOINT Spine3
        {
          OFFSET 14.7254 4.19617e-005 0
          CHANNELS 3 Zrotation Xrotation Yrotation
          JOINT Spine4
          {
            OFFSET 10.9679 0 0
            CHANNELS 3 Zrotation Xrotation Yrotation
            JOINT RightShoulder
            {
              OFFSET 2.46616 -1.6653 3.69651
              CHANNELS 3 Zrotation Xrotation Yrotation
              JOINT RightArm
              {
                OFFSET 13.0012 0 0
                CHANNELS 3 Zrotation Xrotation Yrotation
                JOINT RightForeArm
                {
                  OFFSET 28.7848 1.52588e-005 0
                  CHANNELS 3 Zrotation Xrotation Yrotation
                  JOINT RightHand
                  {
                    OFFSET 26.5688 1.52588e-005 0
                    CHANNELS 3 Zrotation Xrotation Yrotation
                    End Site
                    {
                      OFFSET 0 0 0
                    }
                  }
                }
              }
            }
            JOINT LeftShoulder
            {
              OFFSET 2.38034 -1.29275 -3.75231
              CHANNELS 3 Zrotation Xrotation Yrotation
              JOINT LeftArm
              {
                OFFSET 16.3182 6.10352e-005 0
                CHANNELS 3 Zrotation Xrotation Yrotation
                JOINT LeftForeArm
                {
                  OFFSET 27.0901 0 0
                  CHANNELS 3 Zrotation Xrotation Yrotation
                  JOINT LeftHand
                  {
                    OFFSET 24.5451 1.52588e-005 0
                    CHANNELS 3 Zrotation Xrotation Yrotation
                    End Site
                    {
                      OFFSET 0 0 0
                    }
                  }
                }
              }
            }
            JOINT Neck
            {
              OFFSET 5.0226 -0.0266342 0
              CHANNELS 3 Zrotation Xrotation Yrotation
              JOINT Head
              {
                OFFSET 6.69363 2.86102e-005 0
                CHANNELS 3 Zrotation Xrotation Yrotation
                End Site
                {
                  OFFSET 0 0 0
                }
              }
            }
          }
        }
      }
    }
  }
}
MOTION
Frames:	15
Frame Time:	0.0333333
-12.3742 81.6031 36.5729 -140.308 -65.0486 -132.073 -177.793 46.2908 106.895 -5.7181 -36.8862 -2.76691 -1.49743 -2.14698 -7.58365 28.7808 4.85829e-006 2.84539e-006 -178.964 5.60663 100.522 -47.5369 55.13 5.20092 108.916 -26.3571 -4.35431 28.7808 1.35224e-005 2.31008e-005 1.18258 8.10031 -92.8526 10.6149 -0.168329 -4.39826 -1.06345 -0.361553 -4.3866 -23.5418 1.16004 -4.24619 -3.52911 1.16004 -4.24619 103.923 -17.3213 -77.6448 9.58918 24.4027 19.4368 62.9868 44.6478 -75.5183 -0.347151 -0.0316657 -7.04452 -95.4288 -42.8987 68.3772 10.1301 -27.3104 -10.7324 -177.392 -66.7701 179.989 1.46626 -1.45582 -43.4739 -15.3024 -8.52614 4.74183 0.641727 -9.09972 -22.2388 
-12.4036 81.4645 36.7804 -143.262 -66.9571 -134.952 -177.389 45.7405 108.361 -4.9904 -28.2746 -1.8945 -2.48187 -1.77551 -7.11907 28.7808 4.85829e-006 2.84539e-006 -178.903 6.08172 100.931 -47.9538 58.0175 5.91293 109.262 -26.7756 -4.3448 28.7808 1.35224e-005 2.31008e-005 1.12391 8.05594 -92.9294 10.7002 -0.316828 -4.46517 -0.978358 -0.512939 -4.4472 -23.4541 1.03901 -4.35393 -3.44149 1.039 -4.35397 104.313 -17.8442 -76.6723 9.19554 24.5881 20.9453 61.6149 43.2746 -74.8699 0.256528 -0.0190675 -3.9621 -95.0861 -42.7639 68.8796 8.66919 -26.5559 -10.0721 -177.354 -67.9186 179.988 4.38001 -2.53789 -44.2132 -14.3623 -7.87134 3.69674 2.30799 -8.71778 -20.8209 
-12.3319 81.3246 37.1023 -146.406 -68.5038 -138.298 -177.035 44.4792 109.641 -6.27332 -41.8866 -3.38797 -1.04994 -3.53789 -10.0947 28.7808 4.85829e-006 2.84539e-006 -179.096 6.9832 100.954 -49.5713 59.63 6.35561 108.25 -25.7769 -4.44413 28.7808 1.35224e-005 2.31008e-005 1.15162 8.01578 -93.0278 10.7806 -0.352009 -4.45945 -0.89788 -0.547764 -4.43959 -23.3736 1.00318 -4.3595 -3.36099 1.00316 -4.35954 104.658 -17.9273 -75.8069 9.33333 24.3919 22.5347 60.1325 42.5057 -73.9854 1.00817 0.00783092 -2.5925 -94.9408 -42.3918 68.9865 7.13466 -25.6384 -8.77306 -177.256 -70.9648 179.986 6.66469 -3.31294 -43.4194 -13.4859 -7.57161 3.10047 3.25054 -8.55098 -19.9769 
-12.2628 81.415 37.2166 -149.589 -70.0308 -141.777 -176.527 43.4702 110.931 -5.99672 -39.5491 -3.08118 -1.22415 -4.24469 -11.4844 28.7808 4.85829e-006 2.84539e-006 -179.11 7.45139 100.849 -49.8147 61.317 6.84755 107.626 -25.7071 -4.56785 28.7808 1.35224e-005 2.31008e-005 1.03975 7.96261 -92.9479 10.8879 -0.384004 -4.45922 -0.790587 -0.579631 -4.43798 -23.2662 0.972115 -4.36811 -3.25354 0.972099 -4.36813 104.943 -18.1859 -75.118 9.38899 24.2437 23.8665 57.7413 41.629 -72.4601 1.11428 0.0345454 -1.01083 -94.3552 -41.9948 69.785 5.62871 -24.668 -7.01691 -177.194 -73.0119 179.984 5.20412 -2.56541 -40.4996 -12.6775 -7.40281 2.76177 3.88614 -8.46502 -19.3899 
-12.1253 81.5443 37.3421 -153.481 -71.7078 -146.099 -176.074 42.6222 111.924 -5.51759 -34.8402 -2.53426 -1.58536 -5.03953 -13.0947 28.7808 4.85829e-006 2.84539e-006 -179.138 8.02544 100.563 -50.053 63.1898 7.46306 106.938 -25.9823 -4.75277 28.7808 1.35224e-005 2.31008e-005 0.909856 7.89361 -92.833 11.0308 -0.456719 -4.39459 -0.647386 -0.649524 -4.37029 -23.1244 0.883884 -4.32914 -3.11171 0.883897 -4.32914 105.273 -18.5013 -74.3367 9.6288 23.9477 24.8223 52.0214 40.1945 -68.5608 1.78646 0.0891601 0.476581 -93.6064 -41.7632 70.9176 4.67299 -24 -5.52639 -177.165 -73.9924 179.983 3.43947 -1.81516 -37.4222 -11.6757 -7.11419 2.1316 4.16327 -8.16768 -18.5671 
-11.9143 81.7429 37.5671 -157.746 -73.2275 -150.752 -175.672 41.6341 112.889 -6.34323 -42.4979 -3.46248 -0.837752 -5.46859 -13.6423 28.7808 4.85829e-006 2.84539e-006 -179.143 8.45941 100.211 -50.1281 64.7648 8.07415 106.139 -26.0317 -4.93679 28.7808 1.35224e-005 2.31008e-005 0.80975 7.82827 -92.736 11.1651 -0.526762 -4.27759 -0.512666 -0.714224 -4.25044 -22.9924 0.781395 -4.23766 -2.97972 0.781382 -4.23767 105.756 -19.5537 -73.3021 9.66863 23.7419 24.9622 45.0899 38.5599 -63.6317 2.89523 0.156102 0.77557 -92.6304 -41.1437 72.3106 3.63194 -23.3228 -3.99643 -177.083 -76.8805 179.979 2.4212 -1.38138 -34.3452 -10.7306 -6.80421 0.990353 4.54143 -7.79917 -17.2586 
-11.7054 82.0909 37.658 -162.407 -74.5743 -155.794 -175.276 40.9975 113.89 -7.51023 -50.208 -4.69998 -2.04314 -3.40547 -10.0662 28.7808 4.85829e-006 2.84539e-006 -179.069 8.69139 99.8372 -49.5335 66.0251 8.56323 105.158 -26.9561 -5.28785 28.7808 1.35224e-005 2.31008e-005 0.662414 7.75841 -92.5367 11.3116 -0.551662 -4.29321 -0.366232 -0.739771 -4.2649 -22.8455 0.761868 -4.26045 -2.83283 0.761854 -4.26046 106.088 -19.2502 -72.4552 9.54992 23.7799 26.5481 40.1146 35.2223 -61.2053 4.13585 0.39444 5.03699 -91.8922 -41.0573 73.4959 2.63724 -22.8481 -3.27277 -176.962 -81.7842 179.967 5.58589 -2.11211 -32.8344 -10.0739 -6.63682 1.30519 5.05261 -7.71495 -17.0853 
-11.3582 82.3408 38.0472 -168.139 -75.4926 -161.924 -174.716 39.6059 114.9 -8.95057 -56.8477 -6.18837 -3.09016 -4.5603 -12.5563 28.7808 4.85829e-006 2.84539e-006 -179.041 8.64291 99.3281 -49.668 67.6064 9.34658 104.344 -27.3409 -5.54533 28.7808 1.35224e-005 2.31008e-005 0.611479 7.72598 -92.4747 11.3781 -0.58296 -4.15821 -0.299327 -0.765372 -4.12903 -22.7818 0.69326 -4.13972 -2.76915 0.69325 -4.13975 106.417 -19.7798 -71.7495 9.00835 23.9273 27.652 33.7236 31.542 -57.7905 5.88901 0.75054 8.53673 -90.9091 -40.3526 74.9176 1.41373 -22.2937 -2.44575 -176.892 -86.8979 179.912 7.93268 -2.53348 -30.9714 -9.19317 -6.43198 0.655795 5.15779 -7.44679 -16.2749 
-10.934 82.6659 38.4897 -172.179 -76.3526 -166.09 -173.921 38.0324 116.405 -7.58974 -50.6672 -4.7837 -1.92423 -5.09129 -13.257 28.7808 4.85829e-006 2.84539e-006 -178.887 8.16019 98.9216 -48.4571 68.4077 9.85613 104.436 -28.5625 -5.75629 28.7808 1.35224e-005 2.31008e-005 0.623184 7.66871 -92.4881 11.4939 -0.522411 -4.14223 -0.183468 -0.704165 -4.11575 -22.6665 0.746294 -4.10675 -2.65385 0.746287 -4.10677 106.674 -19.5209 -71.0341 9.00115 23.8858 28.4536 28.5099 27.993 -55.3858 7.59193 1.15774 11.3138 -90.0585 -40.0076 76.2438 0.744836 -21.933 -1.61528 -177.199 -89.4056 179.55 9.96966 -2.88576 -29.807 -8.63702 -6.3663 1.12257 5.53379 -7.47266 -16.3868 
-10.3856 83.1024 38.9044 -177.438 -77.4188 -171.585 -173.297 36.6817 117.326 -7.60726 -50.7614 -4.8007 1.23138 -5.88675 -13.7915 28.7808 4.85829e-006 2.84539e-006 -178.91 8.47156 98.3879 -47.9837 68.8082 10.1042 102.381 -28.0574 -6.14097 28.7808 1.35224e-005 2.31008e-005 0.537299 7.59058 -92.4067 11.6527 -0.585559 -4.01483 -0.0241893 -0.761555 -3.98527 -22.5102 0.647166 -4.00538 -2.49758 0.647159 -4.0054 106.923 -20.1613 -70.5603 8.39 24.0804 28.6145 23.0609 24.3313 -52.7202 10.3376 1.71261 12.8745 -88.6245 -39.195 78.4568 -0.160808 -21.5088 -0.777379 2.42792 -86.5693 -0.903523 12.3922 -3.16985 -27.8308 -7.65234 -6.02515 0.495536 5.5072 -7.02487 -15.538 
-9.70691 83.6352 39.3482 175.151 -78.4406 -179.516 -172.962 35.7355 117.708 -10.6812 -62.391 -7.94181 3.85853 -4.77 -11.023 28.7808 4.85829e-006 2.84539e-006 -178.851 8.17822 97.4075 -46.589 69.6554 10.6729 101.35 -28.3017 -6.4382 28.7808 1.35224e-005 2.31008e-005 0.468882 7.49229 -92.3036 11.8522 -0.626679 -3.86239 0.175757 -0.796345 -3.83112 -22.3138 0.561205 -3.87259 -2.30116 0.561184 -3.87262 107.221 -20.0995 -69.8362 8.38295 24.1003 28.56 20.1471 22.0016 -51.6121 10.6194 1.98379 15.1251 -87.8781 -38.7145 79.6189 -0.624974 -21.1315 0.680318 1.7216 -82.3297 -1.6953 13.1412 -3.07164 -25.9817 -7.06365 -6.01261 1.07882 5.83041 -7.13898 -16.1372 
-8.9633 84.3267 39.7422 167.879 -79.248 172.73 -172.555 35.2244 118.568 -12.6464 -66.8192 -9.92128 2.93397 -0.89809 -4.586 28.7808 4.85829e-006 2.84539e-006 -178.78 7.68319 96.4647 -44.3148 69.9609 10.8375 99.6756 -29.5527 -7.10668 28.7808 1.35224e-005 2.31008e-005 0.376709 7.40755 -92.0765 12.0267 -0.615062 -3.71902 0.350675 -0.77755 -3.68844 -22.1421 0.531248 -3.73183 -2.12949 0.531231 -3.73186 107.552 -20.3368 -69.0841 7.93554 24.2958 28.7826 17.8895 20.0443 -50.9232 12.8148 2.46363 15.8267 -86.746 -37.7489 81.363 -1.56302 -20.6791 1.84328 1.58478 -79.0911 -1.89738 13.148 -2.92723 -24.9095 -5.93038 -6.06917 1.20631 5.46381 -7.17595 -16.4265 
-7.91158 85.1095 40.3107 162.437 -79.9337 166.89 -171.897 33.3635 119.056 -12.9033 -67.2951 -10.178 6.21489 -0.0275167 -2.80603 28.7808 4.85829e-006 2.84539e-006 -178.721 6.51746 95.3122 -40.8223 69.627 10.7105 98.0992 -30.8539 -7.81995 28.7808 1.35224e-005 2.31008e-005 0.360798 7.32555 -91.9816 12.1941 -0.548287 -3.57874 0.518427 -0.705053 -3.55108 -21.9776 0.550948 -3.57908 -1.96498 0.550942 -3.5791 107.7 -20.6125 -68.8049 7.56424 24.4608 28.5977 15.0928 17.7437 -49.8614 14.0337 2.83157 16.9259 -85.5222 -37.0485 83.3687 -2.3507 -20.2722 3.11847 1.51951 -75.2382 -2.04104 14.2545 -3.00899 -24.1493 -5.0266 -5.8948 1.15592 5.48303 -7.00889 -16.4466 
-6.70469 86.1646 40.8741 154.452 -80.5365 158.819 -171.415 31.6685 119.124 -12.1695 -65.8844 -9.43947 10.9879 3.95931 3.50632 28.7808 4.85829e-006 2.84539e-006 -178.524 4.34192 94.4565 -34.9866 69.0803 10.4628 95.5686 -32.6587 -8.9771 28.7808 1.35224e-005 2.31008e-005 0.332334 7.22635 -91.9288 12.3966 -0.508761 -3.61732 0.720786 -0.667397 -3.59148 -21.7746 0.601143 -3.60312 -1.76192 0.601116 -3.60313 107.734 -19.7002 -68.4962 8.23498 24.2931 27.8862 13.1566 15.9267 -49.441 12.0954 2.83224 20.2464 -84.4541 -37.0142 85.2502 -2.84525 -19.9515 4.45733 1.50153 -72.6373 -2.11223 15.3803 -3.11306 -23.5389 -3.77005 -5.87513 2.67887 5.19685 -7.18266 -17.4569 
-5.15157 87.2783 41.5287 141.698 -80.8044 146.298 -171.23 29.8125 118.514 -12.082 -65.6962 -9.35247 17.4504 6.53004 6.67329 28.7808 4.85829e-006 2.84539e-006 -178.229 1.01478 93.8543 -26.5694 68.688 10.528 91.7893 -35.1719 -10.8753 28.7808 1.35224e-005 2.31008e-005 0.35408 7.11467 -92.0581 12.6154 -0.500865 -3.61963 0.939531 -0.65962 -3.59409 -21.5557 0.60959 -3.6033 -1.54302 0.609575 -3.60333 107.855 -19.4114 -68.132 8.00868 24.3966 27.6614 10.9706 13.9927 -48.7373 11.871 3.04638 22.3184 -83.0537 -36.4833 87.6628 -3.29863 -19.7094 5.36757 1.49813 -71.3525 -2.14185 16.3706 -2.976 -21.7113 -1.69034 -6.10694 3.15501 4.34236 -7.4002 -17.9496 
